<svg id="Layer_1" data-name="Layer 1" xmlns="http://www.w3.org/2000/svg" xmlns:xlink="http://www.w3.org/1999/xlink" viewBox="0 0 1920 1080"><defs><style>.cls-1{fill:url(#linear-gradient);}.cls-2{fill:#f15a24;}.cls-3{fill:#c7b299;}.cls-4{fill:#fff;}.cls-5{fill:#fbb03b;}.cls-6{fill:#0071bc;}.cls-7{fill:#1b1464;}.cls-8{fill:#009245;}.cls-9{opacity:0.25;}</style><linearGradient id="linear-gradient" x1="960" x2="960" y2="1076.69" gradientUnits="userSpaceOnUse"><stop offset="0" stop-color="#f1f1f1"/><stop offset="1" stop-color="#e9e9e9"/></linearGradient></defs><title>login-bg</title><rect class="cls-1" width="1920" height="1080"/><g id="Books"><g id="_1" data-name="1"><polygon class="cls-2" points="752.28 961.12 417 961.12 703.82 751.45 966.9 751.45 752.28 961.12"/><polygon class="cls-2" points="705.79 654.52 417 864.2 417 961.12 705.79 751.45 705.79 654.52"/><path class="cls-3" d="M954,751.45,745.36,950.24v-86L954,665.4a128.45,128.45,0,0,1,0,86.05Z"/><path class="cls-4" d="M745.36,950.24H429.86v-86h315.5a128.52,128.52,0,0,1,0,86Z"/><polygon class="cls-2" points="752.28 864.2 417 864.2 703.82 654.52 966.9 654.52 752.28 864.2"/></g><g id="_2" data-name="2"><polygon class="cls-5" points="828.67 835.54 508.66 835.54 782.41 635.42 1033.51 635.42 828.67 835.54"/><polygon class="cls-5" points="784.3 542.91 508.66 743.03 508.66 835.54 784.3 635.42 784.3 542.91"/><path class="cls-3" d="M1021.24,635.42,822.06,825.16V743l199.18-189.74a122.63,122.63,0,0,1,0,82.13Z"/><path class="cls-4" d="M822.06,825.16H520.93V743H822.06a122.57,122.57,0,0,1,0,82.13Z"/><polygon class="cls-5" points="828.67 743.03 508.66 743.03 782.41 542.91 1033.51 542.91 828.67 743.03"/></g><g id="_3" data-name="3"><polygon class="cls-6" points="777.98 715.54 477.25 715.54 734.51 527.48 970.48 527.48 777.98 715.54"/><polygon class="cls-6" points="736.28 440.54 477.25 628.61 477.25 715.54 736.28 527.48 736.28 440.54"/><path class="cls-3" d="M959,527.48,771.77,705.79V628.61L959,450.3a115.29,115.29,0,0,1,0,77.18Z"/><path class="cls-4" d="M771.77,705.79h-283V628.61h283a115.24,115.24,0,0,1,0,77.18Z"/><polygon class="cls-6" points="777.98 628.61 477.25 628.61 734.51 440.54 970.48 440.54 777.98 628.61"/></g><g id="_4" data-name="4"><polygon class="cls-7" points="827.52 614.63 526.79 614.63 784.05 426.57 1020.02 426.57 827.52 614.63"/><polygon class="cls-7" points="785.83 339.63 526.79 527.7 526.79 614.63 785.83 426.57 785.83 339.63"/><path class="cls-3" d="M1008.49,426.57,821.31,604.88V527.7l187.18-178.31a115.29,115.29,0,0,1,0,77.18Z"/><path class="cls-4" d="M821.31,604.88h-283V527.7h283a115.07,115.07,0,0,1,0,77.18Z"/><polygon class="cls-7" points="827.52 527.7 526.79 527.7 784.05 339.63 1020.02 339.63 827.52 527.7"/></g><g id="_5" data-name="5"><polygon class="cls-8" points="874.58 508.67 629.98 508.67 839.23 355.71 1031.15 355.71 874.58 508.67"/><polygon class="cls-8" points="840.67 285 629.98 437.96 629.98 508.67 840.67 355.71 840.67 285"/><path class="cls-3" d="M1021.77,355.71l-152.24,145V438l152.24-145a93.74,93.74,0,0,1,0,62.77Z"/><path class="cls-4" d="M869.53,500.74H639.36V438H869.53a93.73,93.73,0,0,1,0,62.78Z"/><polygon class="cls-8" points="874.58 437.96 629.98 437.96 839.23 285 1031.15 285 874.58 437.96"/></g></g><g id="stars" class="cls-9"><polygon class="cls-7" points="97.52 1330.61 -4.73 1116.14 -239.37 1078.78 -66.99 915.26 -103.97 680.56 104.81 793.97 316.6 686.28 273.26 919.89 441.13 1088.03 205.56 1119 97.52 1330.61"/><polygon class="cls-8" points="176.06 671.62 72.09 453.55 -166.49 415.56 8.79 249.3 -28.81 10.66 183.47 125.97 398.82 16.47 354.75 254 525.44 424.97 285.91 456.46 176.06 671.62"/><polygon class="cls-5" points="1639.53 571.45 1556.09 396.43 1364.62 365.94 1505.28 232.5 1475.11 40.98 1645.48 133.53 1818.31 45.64 1782.94 236.28 1919.93 373.49 1727.7 398.76 1639.53 571.45"/><polygon class="cls-6" points="720.11 413.86 657.64 282.81 514.27 259.99 619.6 160.08 597 16.67 724.57 85.97 853.97 20.16 827.49 162.9 930.06 265.64 786.12 284.56 720.11 413.86"/><polygon class="cls-6" points="1512.49 446.2 1479.37 376.74 1403.38 364.64 1459.21 311.68 1447.23 235.67 1514.85 272.4 1583.44 237.52 1569.4 313.18 1623.77 367.64 1547.48 377.67 1512.49 446.2"/><polygon class="cls-7" points="1247.3 1196.52 1187.1 1070.25 1048.95 1048.26 1150.44 951.98 1128.67 813.8 1251.59 880.57 1376.29 817.17 1350.77 954.71 1449.6 1053.7 1310.91 1071.93 1247.3 1196.52"/><polygon class="cls-2" points="1387.27 717.9 1341.22 621.31 1235.55 604.49 1313.18 530.84 1296.53 425.14 1390.55 476.22 1485.93 427.72 1466.41 532.93 1542.02 608.65 1435.92 622.6 1387.27 717.9"/><polygon class="cls-2" points="888.32 1202.08 855.24 1132.7 779.34 1120.61 835.1 1067.72 823.14 991.79 890.68 1028.48 959.19 993.64 945.17 1069.21 999.48 1123.6 923.27 1133.62 888.32 1202.08"/><polygon class="cls-5" points="439.35 895.22 394.44 801.02 291.39 784.62 367.1 712.8 350.85 609.72 442.55 659.53 535.57 612.23 516.53 714.83 590.26 788.68 486.8 802.28 439.35 895.22"/><polygon class="cls-8" points="1683.67 1070.14 1631.96 961.68 1513.31 942.79 1600.48 860.1 1581.78 741.41 1687.36 798.76 1794.46 744.3 1772.54 862.44 1857.43 947.47 1738.31 963.13 1683.67 1070.14"/></g></svg>