<svg id="Layer_1" data-name="Layer 1" xmlns="http://www.w3.org/2000/svg" viewBox="0 0 1091 241"><defs><style>.cls-1{fill:#3c3c3c;}.cls-2{fill:#1e1e1e;}.cls-3{fill:#f15a24;}.cls-4{fill:#fbb03b;}.cls-5{fill:#0071bc;}.cls-6{fill:#1b1464;}.cls-7{fill:#009245;}</style></defs><title>logo</title><path class="cls-1" d="M203,210.28V30.72h3.9L326.45,168.36V30.72h17.7V210.28h-4l-118.53-136v136Z"/><path class="cls-1" d="M416.66,74.05q30.69,0,50.87,22.22,18.35,20.27,18.34,48t-19.38,48.65q-19.38,20.81-49.83,20.81t-50-20.81q-19.38-20.82-19.38-48.65,0-27.59,18.34-47.85Q385.85,74.06,416.66,74.05Zm-.06,16.73q-21.32,0-36.63,15.74t-15.31,38.09a54,54,0,0,0,7,26.85,49.43,49.43,0,0,0,18.87,19.23,53.59,53.59,0,0,0,52.18,0,49.5,49.5,0,0,0,18.87-19.23,54,54,0,0,0,7-26.85q0-22.34-15.37-38.09T416.6,90.78Z"/><path class="cls-1" d="M496.38,28.15h17.09V77.47h27.1V92.24h-27.1v118H496.38v-118H473.07V77.47h23.31Z"/><path class="cls-1" d="M646.77,166.22l14.41,7.56q-7.09,13.92-16.37,22.46a65.1,65.1,0,0,1-20.9,13,73.09,73.09,0,0,1-26.27,4.45q-32.49,0-50.82-21.3t-18.33-48.16A71,71,0,0,1,544,99.2q19.68-25.14,52.66-25.15,34,0,54.25,25.76,14.42,18.19,14.66,45.41H546.07q.48,23.15,14.78,37.94T596.18,198a56.74,56.74,0,0,0,19.73-3.52,51.88,51.88,0,0,0,16.32-9.37Q639,179.22,646.77,166.22Zm0-35.77q-3.42-13.66-10-21.85a47.2,47.2,0,0,0-17.29-13.19,53.07,53.07,0,0,0-22.61-5q-19.56,0-33.61,12.57-10.27,9.17-15.52,27.47Z"/><path class="cls-2" d="M841.69,62.27,817.78,85.06Q793.39,59.29,762.9,59.28q-25.74,0-43.36,17.6t-17.62,43.38q0,18,7.8,31.89A55.83,55.83,0,0,0,731.8,174,64.12,64.12,0,0,0,763.51,182a65.33,65.33,0,0,0,27.2-5.56q12.31-5.55,27.07-20.22L841,180.36q-19.9,19.42-37.6,26.93T763,214.8q-41.87,0-68.54-26.55t-26.67-68.06q0-26.85,12.14-47.72T714.67,38.9a98.06,98.06,0,0,1,48.77-12.7,103.48,103.48,0,0,1,78.25,36.07Z"/><path class="cls-2" d="M916.21,77.47h33.32V210.28H916.21v-14q-9.76,9.28-19.57,13.37a54.74,54.74,0,0,1-21.28,4.09q-25.73,0-44.5-20t-18.78-49.62q0-30.77,18.17-50.41t44.13-19.66a56.13,56.13,0,0,1,22.44,4.52,61.31,61.31,0,0,1,19.39,13.55Zm-35,27.34q-15.45,0-25.67,10.93t-10.22,28q0,17.22,10.4,28.32a33.7,33.7,0,0,0,25.61,11.11q15.71,0,26-10.92t10.34-28.63q0-17.32-10.34-28.07T881.17,104.81Z"/><path class="cls-2" d="M953.22,77.47h33.33V91.08q11.33-9.56,20.53-13.29a49.72,49.72,0,0,1,18.84-3.74,45.58,45.58,0,0,1,33.52,13.8Q1071,99.57,1071,122.51v87.77h-33V152.12q0-23.77-2.13-31.58t-7.43-11.88a20.77,20.77,0,0,0-13.09-4.09,24.52,24.52,0,0,0-17.35,6.77q-7.26,6.76-10,18.71-1.47,6.22-1.46,26.95v53.28H953.22Z"/><path class="cls-3" d="M27.58,178.26H197a0,0,0,0,1,0,0v32.11a0,0,0,0,1,0,0H27.58a7.6,7.6,0,0,1-7.6-7.6V185.86A7.6,7.6,0,0,1,27.58,178.26Z"/><path class="cls-4" d="M50.58,141.29H197a0,0,0,0,1,0,0v32.11a0,0,0,0,1,0,0H50.58a7.6,7.6,0,0,1-7.6-7.6V148.88A7.6,7.6,0,0,1,50.58,141.29Z"/><path class="cls-5" d="M73.58,104.31H197a0,0,0,0,1,0,0v32.11a0,0,0,0,1,0,0H73.58a7.6,7.6,0,0,1-7.6-7.6V111.91a7.6,7.6,0,0,1,7.6-7.6Z"/><path class="cls-6" d="M100.58,67.34H197a0,0,0,0,1,0,0V99.45a0,0,0,0,1,0,0h-96.4a7.6,7.6,0,0,1-7.6-7.6V74.94A7.6,7.6,0,0,1,100.58,67.34Z"/><path class="cls-7" d="M127.58,30.37H197a0,0,0,0,1,0,0V62.48a0,0,0,0,1,0,0h-69.4a7.6,7.6,0,0,1-7.6-7.6V38A7.6,7.6,0,0,1,127.58,30.37Z"/></svg>